<svg xmlns="http://www.w3.org/2000/svg" viewBox="0 0 216.84 40.67"><g id="Layer_2" data-name="Layer 2"><g id="Layer_1-2" data-name="Layer 1"><path d="M3,27.26A74,74,0,0,0,27.4,16,15.2,15.2,0,0,1,28,17.58a37.84,37.84,0,0,1,1.33,9A28,28,0,0,1,27.11,39a2.38,2.38,0,0,1-2.52,1.7A22.89,22.89,0,0,1,9.65,35,30.26,30.26,0,0,1,3,27.26Z"/><path d="M29.74,9.81C23.64,15.68,8.45,23.39,1.67,24a20.37,20.37,0,0,1,8-13.21l-.14-.17c-.89.72-1.82,1.4-2.65,2.17A20.81,20.81,0,0,0,.83,23.74a1.49,1.49,0,0,1-.54.68,9.41,9.41,0,0,1,.86-6.69A21.72,21.72,0,0,1,6.68,11,22.1,22.1,0,0,1,8.8,9.23,1,1,0,0,0,9.22,8a13.13,13.13,0,0,1-.28-6c.16-.8.35-1.56,1.3-1.83a3.68,3.68,0,0,1,3.07.41c.13.09.12.62,0,.85A13.54,13.54,0,0,0,11.73,6.2a12.14,12.14,0,0,0,0,1.35c1.41-.29,2.74-.61,4.08-.84a19.38,19.38,0,0,1,9.39.23A9.87,9.87,0,0,1,29.74,9.81Z"/><path d="M30.5,13.63c3.08,9.21,3.15,17.95-3.1,25.93.32-.64.65-1.26,1-1.89a26.81,26.81,0,0,0,2.52-12,37.43,37.43,0,0,0-1-8.69,5.25,5.25,0,0,0-.5-1.46c-.33-.56-.29-.92.27-1.26.29-.21.56-.42.84-.65Z"/><path d="M71.16,39H65.29L53.85,20.23V39H48V10.47h5.88L65.31,29.28V10.47h5.85Z"/><path d="M88.62,36.84a7.1,7.1,0,0,1-5.8,2.55,6.68,6.68,0,0,1-5.2-2,8.3,8.3,0,0,1-1.83-5.74V17.8h5.66V31.51c0,2.21,1,3.32,3,3.32s3.24-.67,4-2v-15H94.1V39H88.78Z"/><path d="M105.15,12.59V17.8h3.63V22h-3.63V32.53a2.48,2.48,0,0,0,.46,1.69,2.25,2.25,0,0,0,1.72.51,9,9,0,0,0,1.66-.14v4.29a11.61,11.61,0,0,1-3.42.51q-6,0-6.08-6V22H96.4V17.8h3.09V12.59Z"/><path d="M118.44,34.43H128.8V39H111.21V35.55l10-13.18H111.5V17.8h17v3.34Z"/><path d="M142.71,39V10.47h10c3.46,0,6.09.67,7.88,2a6.8,6.8,0,0,1,2.68,5.83A6.41,6.41,0,0,1,162.18,22a6.17,6.17,0,0,1-3,2.35,6,6,0,0,1,3.45,2.21,6.5,6.5,0,0,1,1.27,4.07,7.52,7.52,0,0,1-2.63,6.23Q158.66,39,153.8,39Zm5.88-16.57h4.35q4.44-.09,4.44-3.55a3.28,3.28,0,0,0-1.12-2.79,5.92,5.92,0,0,0-3.56-.86h-4.11Zm0,4.15v7.7h5a4.87,4.87,0,0,0,3.25-1A3.42,3.42,0,0,0,158,30.55q0-3.91-4.05-4Z"/><path d="M167.9,12.32a2.8,2.8,0,0,1,.86-2.1,3.68,3.68,0,0,1,4.63,0,2.76,2.76,0,0,1,.86,2.1,2.77,2.77,0,0,1-.87,2.11,3.64,3.64,0,0,1-4.6,0A2.78,2.78,0,0,1,167.9,12.32Zm6,26.68h-5.68V17.8h5.68Z"/><path d="M184.56,39h-5.68V8.91h5.68Z"/><path d="M195.2,39h-5.69V8.91h5.69Z"/><path d="M211.34,33.14a1.8,1.8,0,0,0-1-1.63,11.6,11.6,0,0,0-3.3-1.07q-7.56-1.59-7.56-6.43a5.82,5.82,0,0,1,2.34-4.71,9.44,9.44,0,0,1,6.12-1.89,10.17,10.17,0,0,1,6.46,1.9,6,6,0,0,1,2.42,4.94h-5.67a2.75,2.75,0,0,0-.78-2,3.31,3.31,0,0,0-2.45-.79,3.38,3.38,0,0,0-2.21.64,2,2,0,0,0-.79,1.65,1.77,1.77,0,0,0,.89,1.52,9.61,9.61,0,0,0,3,1,23.76,23.76,0,0,1,3.57.95q4.48,1.63,4.48,5.7a5.55,5.55,0,0,1-2.48,4.69,10.77,10.77,0,0,1-6.43,1.79,11.25,11.25,0,0,1-4.73-1,7.88,7.88,0,0,1-3.24-2.6,6,6,0,0,1-1.18-3.58h5.37a2.91,2.91,0,0,0,1.12,2.31,4.38,4.38,0,0,0,2.78.8,4.14,4.14,0,0,0,2.46-.61A1.93,1.93,0,0,0,211.34,33.14Z"/></g></g></svg>