<svg xmlns="http://www.w3.org/2000/svg" viewBox="0 0 32.54 40.67"><g id="Layer_2" data-name="Layer 2"><g id="Layer_1-2" data-name="Layer 1"><path d="M3,27.26A74,74,0,0,0,27.4,16,15.2,15.2,0,0,1,28,17.58a37.84,37.84,0,0,1,1.33,9A28,28,0,0,1,27.11,39a2.38,2.38,0,0,1-2.52,1.7A22.89,22.89,0,0,1,9.65,35,30.26,30.26,0,0,1,3,27.26Z" style="fill:#fff"/><path d="M29.74,9.81C23.64,15.68,8.45,23.39,1.67,24a20.37,20.37,0,0,1,8-13.21l-.14-.17c-.89.72-1.82,1.4-2.65,2.17A20.81,20.81,0,0,0,.83,23.74a1.49,1.49,0,0,1-.54.68,9.41,9.41,0,0,1,.86-6.69A21.72,21.72,0,0,1,6.68,11,22.1,22.1,0,0,1,8.8,9.23,1,1,0,0,0,9.22,8a13.13,13.13,0,0,1-.28-6c.16-.8.35-1.56,1.3-1.83a3.68,3.68,0,0,1,3.07.41c.13.09.12.62,0,.85A13.54,13.54,0,0,0,11.73,6.2a12.14,12.14,0,0,0,0,1.35c1.41-.29,2.74-.61,4.08-.84a19.38,19.38,0,0,1,9.39.23A9.87,9.87,0,0,1,29.74,9.81Z" style="fill:#fff"/><path d="M30.5,13.63c3.08,9.21,3.15,17.95-3.1,25.93.32-.64.65-1.26,1-1.89a26.81,26.81,0,0,0,2.52-12,37.43,37.43,0,0,0-1-8.69,5.25,5.25,0,0,0-.5-1.46c-.33-.56-.29-.92.27-1.26.29-.21.56-.42.84-.65Z" style="fill:#fff"/></g></g></svg>